<svg fill="#81757D" viewBox="0 0 24 24" xmlns="http://www.w3.org/2000/svg" data-name="Layer 1" stroke="#81757D"><g id="SVGRepo_bgCarrier" stroke-width="0"></g><g id="SVGRepo_tracerCarrier" stroke-linecap="round" stroke-linejoin="round"></g><g id="SVGRepo_iconCarrier"><path d="M8.5,10a2,2,0,1,0,2,2A2,2,0,0,0,8.5,10Zm0,7a2,2,0,1,0,2,2A2,2,0,0,0,8.5,17Zm7-10a2,2,0,1,0-2-2A2,2,0,0,0,15.5,7Zm-7-4a2,2,0,1,0,2,2A2,2,0,0,0,8.5,3Zm7,14a2,2,0,1,0,2,2A2,2,0,0,0,15.5,17Zm0-7a2,2,0,1,0,2,2A2,2,0,0,0,15.5,10Z"></path></g></svg>